<svg width="32" height="32" viewBox="0 0 32 32" fill="none" xmlns="http://www.w3.org/2000/svg">
<rect width="32" height="32" rx="16" fill="#E8F1F9"/>
<path fill-rule="evenodd" clip-rule="evenodd" d="M16 11.8334C14.2742 11.8334 12.875 13.2325 12.875 14.9584C12.875 16.6843 14.2742 18.0834 16 18.0834C17.7259 18.0834 19.125 16.6843 19.125 14.9584C19.125 13.2325 17.7259 11.8334 16 11.8334ZM14.125 14.9584C14.125 13.9228 14.9645 13.0834 16 13.0834C17.0356 13.0834 17.875 13.9228 17.875 14.9584C17.875 15.9939 17.0356 16.8334 16 16.8334C14.9645 16.8334 14.125 15.9939 14.125 14.9584Z" fill="#1877C9"/>
<path fill-rule="evenodd" clip-rule="evenodd" d="M16 6.83337C11.9306 6.83337 8.70837 10.369 8.70837 14.6323C8.70837 15.9996 9.38763 17.6096 10.2422 19.1205C11.1107 20.6558 12.2191 22.1886 13.1909 23.4278L13.2233 23.4691C13.6977 24.0741 14.1017 24.5894 14.4936 24.9454C14.9211 25.3337 15.3925 25.5879 16 25.5879C16.6076 25.5879 17.079 25.3337 17.5065 24.9454C17.8983 24.5894 18.3024 24.0741 18.7768 23.4691L18.8092 23.4278C19.781 22.1886 20.8894 20.6558 21.7578 19.1205C22.6125 17.6096 23.2917 15.9996 23.2917 14.6323C23.2917 10.369 20.0695 6.83337 16 6.83337ZM9.95837 14.6323C9.95837 10.9715 12.7057 8.08337 16 8.08337C19.2944 8.08337 22.0417 10.9715 22.0417 14.6323C22.0417 15.6544 21.5087 17.022 20.6698 18.5051C19.8448 19.9637 18.7786 21.4412 17.8256 22.6564C17.3098 23.3142 16.9701 23.7438 16.666 24.0201C16.3887 24.2721 16.2035 24.3379 16 24.3379C15.7966 24.3379 15.6114 24.2721 15.3341 24.0201C15.0299 23.7438 14.6903 23.3142 14.1745 22.6564C13.2215 21.4412 12.1553 19.9637 11.3303 18.5051C10.4914 17.022 9.95837 15.6544 9.95837 14.6323Z" fill="#1877C9"/>
</svg>
