<svg width="24" height="24" viewBox="0 0 24 24" fill="none" xmlns="http://www.w3.org/2000/svg">
<path d="M10.9846 24C12.7957 24 14.3107 22.7089 14.6586 21H7.31055C7.65863 22.7089 9.17365 24 10.9846 24Z" fill="#1877C9"/>
<path d="M17.9968 11.9991C17.9928 11.9991 17.9888 12 17.9848 12C14.1258 12 10.9848 8.85992 10.9848 5.00006C10.9848 3.93896 11.2289 2.93591 11.6539 2.03394C11.4338 2.01306 11.2108 2.00006 10.9848 2.00006C7.11891 2.00006 3.98488 5.13391 3.98488 9V11.788C3.98488 13.767 3.11787 15.635 1.59681 16.921C1.0898 17.354 0.864758 18.0439 1.04677 18.717C1.2588 19.5 2.03279 20.0001 2.84486 20.0001H19.1198C19.9718 20.0001 20.7749 19.448 20.9478 18.613C21.0818 17.967 20.8518 17.322 20.3508 16.901C18.8968 15.6821 18.0558 13.8909 17.9968 11.9991Z" fill="#1877C9"/>
<path d="M22.9853 5.00006C22.9853 7.76147 20.7468 9.99994 17.9852 9.99994C15.2238 9.99994 12.9854 7.76147 12.9854 5.00006C12.9854 2.23865 15.2238 0 17.9852 0C20.7468 0 22.9853 2.23865 22.9853 5.00006Z" fill="#F97303"/>
</svg>
