<svg width="154" height="71" viewBox="0 0 154 71" fill="none" xmlns="http://www.w3.org/2000/svg">
<path d="M49.0655 1.14441e-05L44.5961 13.6525L40.0452 1.14441e-05H32L41.3047 30.2305H47.3996L57.1108 1.14441e-05H49.0655Z" fill="#F97303"/>
<path d="M76.6141 3.61631C75.5031 2.45196 74.2371 1.55807 72.8151 0.934654C71.3928 0.311823 69.8825 -3.8147e-05 68.2846 -3.8147e-05H68.2439C66.6453 -3.8147e-05 65.142 0.311823 63.7338 0.934654C62.325 1.55807 61.052 2.45196 59.9144 3.61631C58.9658 4.64616 58.2344 5.83083 57.7202 7.17166C57.2053 8.51248 56.9482 9.83298 56.9482 11.1333V18.2032C56.9748 19.8286 57.2124 21.3592 57.6592 22.7946C58.1063 24.2307 58.858 25.5171 59.9144 26.6547C61.052 27.8198 62.332 28.7137 63.754 29.3364C64.4664 29.6488 65.1975 29.8826 65.9473 30.0383C65.9338 29.1138 65.9009 28.1902 65.8908 27.2658C65.8791 26.2134 65.8675 25.1283 65.4348 24.1482C65.0129 23.1931 64.2502 22.9509 63.513 22.3079C61.9917 20.9806 61.9565 18.3732 61.9355 16.8151L61.9338 16.6956C61.9129 15.167 61.8913 13.5863 62.2338 12.296C62.3311 11.9294 62.5531 11.7505 62.8768 11.7781C63.4644 11.8288 64.1772 12.518 64.2515 13.3645C64.3764 14.7885 64.4343 17.3998 64.4349 17.4258C64.4364 17.4949 64.4839 17.5546 64.5508 17.5717C64.5577 17.5736 65.2563 17.7571 66.0849 18.3613C66.887 18.9462 67.0457 19.7438 67.0472 19.752C67.0626 19.8353 67.1429 19.8905 67.2263 19.875C67.31 19.8597 67.3654 19.7797 67.35 19.6961C67.3431 19.6586 67.1718 18.7729 66.2664 18.1125C65.5776 17.6104 64.9814 17.3852 64.7401 17.307C64.731 16.9319 64.6978 15.6823 64.6382 14.5412C64.6398 14.4971 64.6511 14.1859 64.6703 13.7155C64.6862 13.7245 64.7015 13.7339 64.7188 13.7422L64.6709 13.7015C64.7263 12.3334 64.846 9.64265 64.981 8.21359C65.0667 7.30674 65.5241 6.91269 65.9432 6.923C66.3644 6.93419 66.8349 7.36448 66.8729 8.28297C66.9514 10.1851 66.8683 14.6872 66.8676 14.7326C66.866 14.8176 66.9336 14.8877 67.0186 14.8893H67.0215C67.1053 14.8893 67.1738 14.8223 67.1755 14.7383C67.1764 14.6929 67.2596 10.1815 67.1805 8.2703C67.1765 8.17293 67.1666 8.08175 67.1543 7.99351C67.168 7.97008 67.1761 7.94313 67.1758 7.91411C67.1615 6.85686 67.7375 6.47384 68.2349 6.46707C68.7093 6.46235 69.2006 6.78792 69.2081 7.34637C69.2449 10.0554 69.2207 15.3398 69.2204 15.3927C69.22 15.4776 69.2886 15.547 69.3736 15.5475C69.4589 15.5473 69.5279 15.479 69.5283 15.3943C69.5286 15.3448 69.5495 10.7597 69.5229 7.93856L69.5238 7.93326C69.5466 7.55364 70.0402 7.17829 70.5203 7.17549H70.5258C70.9923 7.17549 71.2746 7.52639 71.3207 8.16424C71.4503 9.95584 71.3977 11.846 71.3973 11.8648C71.2769 13.5122 71.3392 14.9954 71.34 15.012C71.3435 15.097 71.4161 15.1627 71.5004 15.159C71.5854 15.1553 71.6512 15.0836 71.6475 14.9984C71.6468 14.9802 71.5695 13.1426 71.7554 11.2962C71.8189 10.6632 72.0824 10.3097 72.4784 10.3274C72.9489 10.3478 73.4798 10.888 73.49 11.6306C73.4945 11.9737 73.5303 12.6485 73.5717 13.4299C73.6526 14.9557 73.7634 17.0456 73.7044 17.9304C73.6931 18.1008 73.6875 18.2972 73.6812 18.5243C73.6573 19.3612 73.6212 20.2049 73.3997 21.0164C73.1616 21.8885 72.5699 22.4723 72.1754 23.2504C71.4051 24.7699 71.4245 26.953 71.4658 28.619C71.4747 28.98 71.4851 29.3807 71.4968 29.8137C71.9441 29.682 72.3841 29.5254 72.8151 29.3364C74.2371 28.7137 75.5031 27.8064 76.6141 26.6141C77.6973 25.4764 78.4629 24.1559 78.91 22.6524C79.3569 21.149 79.5802 19.666 79.5802 18.2032V11.1333C79.553 9.75181 79.2959 8.41099 78.8083 7.11067C78.3207 5.8105 77.5893 4.64616 76.6141 3.61631Z" fill="#F97303"/>
<path d="M80.7178 6.82627H87.5845V30.2305H94.4108V6.82627H101.278V1.14441e-05H80.7178V6.82627Z" fill="#F97303"/>
<path d="M122 6.82627V1.14441e-05H103.472V30.2305H122V23.4042H110.298V18.5284H118.912V11.7021H110.298V6.82627H122Z" fill="#F97303"/>
<path d="M5.71838 62.4465C4.79438 62.4465 3.97838 62.2905 3.27038 61.9785C2.56238 61.6545 2.00438 61.1985 1.59638 60.6105C1.18838 60.0105 0.978383 59.2845 0.966383 58.4325H3.39638C3.42038 59.0205 3.63038 59.5185 4.02638 59.9265C4.43438 60.3225 4.99238 60.5205 5.70038 60.5205C6.31238 60.5205 6.79838 60.3765 7.15838 60.0885C7.51838 59.7885 7.69838 59.3925 7.69838 58.9005C7.69838 58.3845 7.53638 57.9825 7.21238 57.6945C6.90038 57.4065 6.48038 57.1725 5.95238 56.9925C5.42438 56.8125 4.86038 56.6205 4.26038 56.4165C3.28838 56.0805 2.54438 55.6485 2.02838 55.1205C1.52438 54.5925 1.27238 53.8905 1.27238 53.0145C1.26038 52.2705 1.43438 51.6345 1.79438 51.1065C2.16638 50.5665 2.67038 50.1525 3.30638 49.8645C3.94238 49.5645 4.67438 49.4145 5.50238 49.4145C6.34238 49.4145 7.08038 49.5645 7.71638 49.8645C8.36438 50.1645 8.86838 50.5845 9.22838 51.1245C9.60038 51.6645 9.79838 52.3065 9.82238 53.0505H7.35638C7.34438 52.6065 7.17038 52.2165 6.83438 51.8805C6.51038 51.5325 6.05438 51.3585 5.46638 51.3585C4.96238 51.3465 4.53638 51.4725 4.18838 51.7365C3.85238 51.9885 3.68438 52.3605 3.68438 52.8525C3.68438 53.2725 3.81638 53.6085 4.08038 53.8605C4.34438 54.1005 4.70438 54.3045 5.16038 54.4725C5.61638 54.6405 6.13838 54.8205 6.72638 55.0125C7.35038 55.2285 7.92038 55.4805 8.43638 55.7685C8.95238 56.0565 9.36638 56.4405 9.67838 56.9205C9.99038 57.3885 10.1464 57.9945 10.1464 58.7385C10.1464 59.3985 9.97838 60.0105 9.64238 60.5745C9.30638 61.1385 8.80838 61.5945 8.14838 61.9425C7.48838 62.2785 6.67838 62.4465 5.71838 62.4465ZM13.3446 51.9165C12.9246 51.9165 12.5766 51.7905 12.3006 51.5385C12.0366 51.2865 11.9046 50.9685 11.9046 50.5845C11.9046 50.2005 12.0366 49.8885 12.3006 49.6485C12.5766 49.3965 12.9246 49.2705 13.3446 49.2705C13.7646 49.2705 14.1066 49.3965 14.3706 49.6485C14.6466 49.8885 14.7846 50.2005 14.7846 50.5845C14.7846 50.9685 14.6466 51.2865 14.3706 51.5385C14.1066 51.7905 13.7646 51.9165 13.3446 51.9165ZM12.1926 62.2305V53.3025H14.4966V62.2305H12.1926ZM20.5914 62.4465C19.7994 62.4465 19.1034 62.3205 18.5034 62.0685C17.9034 61.8045 17.4234 61.4445 17.0634 60.9885C16.7034 60.5325 16.4874 60.0045 16.4154 59.4045H18.7374C18.8094 59.7525 19.0014 60.0525 19.3134 60.3045C19.6374 60.5445 20.0514 60.6645 20.5554 60.6645C21.0594 60.6645 21.4254 60.5625 21.6534 60.3585C21.8934 60.1545 22.0134 59.9205 22.0134 59.6565C22.0134 59.2725 21.8454 59.0145 21.5094 58.8825C21.1734 58.7385 20.7054 58.6005 20.1054 58.4685C19.7214 58.3845 19.3314 58.2825 18.9354 58.1625C18.5394 58.0425 18.1734 57.8925 17.8374 57.7125C17.5134 57.5205 17.2494 57.2805 17.0454 56.9925C16.8414 56.6925 16.7394 56.3265 16.7394 55.8945C16.7394 55.1025 17.0514 54.4365 17.6754 53.8965C18.3114 53.3565 19.1994 53.0865 20.3394 53.0865C21.3954 53.0865 22.2354 53.3325 22.8594 53.8245C23.4954 54.3165 23.8734 54.9945 23.9934 55.8585H21.8154C21.6834 55.1985 21.1854 54.8685 20.3214 54.8685C19.8894 54.8685 19.5534 54.9525 19.3134 55.1205C19.0854 55.2885 18.9714 55.4985 18.9714 55.7505C18.9714 56.0145 19.1454 56.2245 19.4934 56.3805C19.8414 56.5365 20.3034 56.6805 20.8794 56.8125C21.5034 56.9565 22.0734 57.1185 22.5894 57.2985C23.1174 57.4665 23.5374 57.7245 23.8494 58.0725C24.1614 58.4085 24.3174 58.8945 24.3174 59.5305C24.3294 60.0825 24.1854 60.5805 23.8854 61.0245C23.5854 61.4685 23.1534 61.8165 22.5894 62.0685C22.0254 62.3205 21.3594 62.4465 20.5914 62.4465ZM30.0552 62.2305C29.1192 62.2305 28.3692 62.0025 27.8052 61.5465C27.2412 61.0905 26.9592 60.2805 26.9592 59.1165V55.2285H25.4292V53.3025H26.9592L27.2292 50.9085H29.2632V53.3025H31.6752V55.2285H29.2632V59.1345C29.2632 59.5665 29.3532 59.8665 29.5332 60.0345C29.7252 60.1905 30.0492 60.2685 30.5052 60.2685H31.6212V62.2305H30.0552ZM37.7629 62.4465C36.8629 62.4465 36.0649 62.2545 35.3689 61.8705C34.6729 61.4865 34.1269 60.9465 33.7309 60.2505C33.3349 59.5545 33.1369 58.7505 33.1369 57.8385C33.1369 56.9145 33.3289 56.0925 33.7129 55.3725C34.1089 54.6525 34.6489 54.0945 35.3329 53.6985C36.0289 53.2905 36.8449 53.0865 37.7809 53.0865C38.6569 53.0865 39.4309 53.2785 40.1029 53.6625C40.7749 54.0465 41.2969 54.5745 41.6689 55.2465C42.0529 55.9065 42.2449 56.6445 42.2449 57.4605C42.2449 57.5925 42.2389 57.7305 42.2269 57.8745C42.2269 58.0185 42.2209 58.1685 42.2089 58.3245H35.4229C35.4709 59.0205 35.7109 59.5665 36.1429 59.9625C36.5869 60.3585 37.1209 60.5565 37.7449 60.5565C38.2129 60.5565 38.6029 60.4545 38.9149 60.2505C39.2389 60.0345 39.4789 59.7585 39.6349 59.4225H41.9749C41.8069 59.9865 41.5249 60.5025 41.1289 60.9705C40.7449 61.4265 40.2649 61.7865 39.6889 62.0505C39.1249 62.3145 38.4829 62.4465 37.7629 62.4465ZM37.7809 54.9585C37.2169 54.9585 36.7189 55.1205 36.2869 55.4445C35.8549 55.7565 35.5789 56.2365 35.4589 56.8845H39.9049C39.8689 56.2965 39.6529 55.8285 39.2569 55.4805C38.8609 55.1325 38.3689 54.9585 37.7809 54.9585ZM44.1827 62.2305V53.3025H46.2167L46.4147 54.5085C46.7027 54.0765 47.0807 53.7345 47.5487 53.4825C48.0287 53.2185 48.5807 53.0865 49.2047 53.0865C50.5847 53.0865 51.5627 53.6205 52.1387 54.6885C52.4627 54.1965 52.8947 53.8065 53.4347 53.5185C53.9867 53.2305 54.5867 53.0865 55.2347 53.0865C56.3987 53.0865 57.2927 53.4345 57.9167 54.1305C58.5407 54.8265 58.8527 55.8465 58.8527 57.1905V62.2305H56.5487V57.4065C56.5487 56.6385 56.3987 56.0505 56.0987 55.6425C55.8107 55.2345 55.3607 55.0305 54.7487 55.0305C54.1247 55.0305 53.6207 55.2585 53.2367 55.7145C52.8647 56.1705 52.6787 56.8065 52.6787 57.6225V62.2305H50.3747V57.4065C50.3747 56.6385 50.2247 56.0505 49.9247 55.6425C49.6247 55.2345 49.1627 55.0305 48.5387 55.0305C47.9267 55.0305 47.4287 55.2585 47.0447 55.7145C46.6727 56.1705 46.4867 56.8065 46.4867 57.6225V62.2305H44.1827ZM69.0372 62.2305L64.4292 49.6305H66.8952L70.4592 59.8725L74.0412 49.6305H76.4712L71.8632 62.2305H69.0372ZM81.1269 62.4465C80.2629 62.4465 79.4829 62.2485 78.7869 61.8525C78.1029 61.4565 77.5569 60.9105 77.1489 60.2145C76.7529 59.5065 76.5549 58.6905 76.5549 57.7665C76.5549 56.8425 76.7589 56.0325 77.1669 55.3365C77.5749 54.6285 78.1209 54.0765 78.8049 53.6805C79.5009 53.2845 80.2809 53.0865 81.1449 53.0865C81.9969 53.0865 82.7649 53.2845 83.4489 53.6805C84.1449 54.0765 84.6909 54.6285 85.0869 55.3365C85.4949 56.0325 85.6989 56.8425 85.6989 57.7665C85.6989 58.6905 85.4949 59.5065 85.0869 60.2145C84.6909 60.9105 84.1449 61.4565 83.4489 61.8525C82.7529 62.2485 81.9789 62.4465 81.1269 62.4465ZM81.1269 60.4485C81.7269 60.4485 82.2489 60.2265 82.6929 59.7825C83.1369 59.3265 83.3589 58.6545 83.3589 57.7665C83.3589 56.8785 83.1369 56.2125 82.6929 55.7685C82.2489 55.3125 81.7329 55.0845 81.1449 55.0845C80.5329 55.0845 80.0049 55.3125 79.5609 55.7685C79.1289 56.2125 78.9129 56.8785 78.9129 57.7665C78.9129 58.6545 79.1289 59.3265 79.5609 59.7825C80.0049 60.2265 80.5269 60.4485 81.1269 60.4485ZM91.3853 62.2305C90.4493 62.2305 89.6993 62.0025 89.1353 61.5465C88.5713 61.0905 88.2893 60.2805 88.2893 59.1165V55.2285H86.7593V53.3025H88.2893L88.5593 50.9085H90.5933V53.3025H93.0053V55.2285H90.5933V59.1345C90.5933 59.5665 90.6833 59.8665 90.8633 60.0345C91.0553 60.1905 91.3793 60.2685 91.8353 60.2685H92.9513V62.2305H91.3853ZM99.093 62.4465C98.193 62.4465 97.395 62.2545 96.699 61.8705C96.003 61.4865 95.457 60.9465 95.061 60.2505C94.665 59.5545 94.467 58.7505 94.467 57.8385C94.467 56.9145 94.659 56.0925 95.043 55.3725C95.439 54.6525 95.979 54.0945 96.663 53.6985C97.359 53.2905 98.175 53.0865 99.111 53.0865C99.987 53.0865 100.761 53.2785 101.433 53.6625C102.105 54.0465 102.627 54.5745 102.999 55.2465C103.383 55.9065 103.575 56.6445 103.575 57.4605C103.575 57.5925 103.569 57.7305 103.557 57.8745C103.557 58.0185 103.551 58.1685 103.539 58.3245H96.753C96.801 59.0205 97.041 59.5665 97.473 59.9625C97.917 60.3585 98.451 60.5565 99.075 60.5565C99.543 60.5565 99.933 60.4545 100.245 60.2505C100.569 60.0345 100.809 59.7585 100.965 59.4225H103.305C103.137 59.9865 102.855 60.5025 102.459 60.9705C102.075 61.4265 101.595 61.7865 101.019 62.0505C100.455 62.3145 99.813 62.4465 99.093 62.4465ZM99.111 54.9585C98.547 54.9585 98.049 55.1205 97.617 55.4445C97.185 55.7565 96.909 56.2365 96.789 56.8845H101.235C101.199 56.2965 100.983 55.8285 100.587 55.4805C100.191 55.1325 99.699 54.9585 99.111 54.9585ZM114.158 62.4465C113.234 62.4465 112.418 62.2905 111.71 61.9785C111.002 61.6545 110.444 61.1985 110.036 60.6105C109.628 60.0105 109.418 59.2845 109.406 58.4325H111.836C111.86 59.0205 112.07 59.5185 112.466 59.9265C112.874 60.3225 113.432 60.5205 114.14 60.5205C114.752 60.5205 115.238 60.3765 115.598 60.0885C115.958 59.7885 116.138 59.3925 116.138 58.9005C116.138 58.3845 115.976 57.9825 115.652 57.6945C115.34 57.4065 114.92 57.1725 114.392 56.9925C113.864 56.8125 113.3 56.6205 112.7 56.4165C111.728 56.0805 110.984 55.6485 110.468 55.1205C109.964 54.5925 109.712 53.8905 109.712 53.0145C109.7 52.2705 109.874 51.6345 110.234 51.1065C110.606 50.5665 111.11 50.1525 111.746 49.8645C112.382 49.5645 113.114 49.4145 113.942 49.4145C114.782 49.4145 115.52 49.5645 116.156 49.8645C116.804 50.1645 117.308 50.5845 117.668 51.1245C118.04 51.6645 118.238 52.3065 118.262 53.0505H115.796C115.784 52.6065 115.61 52.2165 115.274 51.8805C114.95 51.5325 114.494 51.3585 113.906 51.3585C113.402 51.3465 112.976 51.4725 112.628 51.7365C112.292 51.9885 112.124 52.3605 112.124 52.8525C112.124 53.2725 112.256 53.6085 112.52 53.8605C112.784 54.1005 113.144 54.3045 113.6 54.4725C114.056 54.6405 114.578 54.8205 115.166 55.0125C115.79 55.2285 116.36 55.4805 116.876 55.7685C117.392 56.0565 117.806 56.4405 118.118 56.9205C118.43 57.3885 118.586 57.9945 118.586 58.7385C118.586 59.3985 118.418 60.0105 118.082 60.5745C117.746 61.1385 117.248 61.5945 116.588 61.9425C115.928 62.2785 115.118 62.4465 114.158 62.4465ZM123.62 62.4465C122.852 62.4465 122.222 62.3265 121.73 62.0865C121.238 61.8345 120.872 61.5045 120.632 61.0965C120.392 60.6885 120.272 60.2385 120.272 59.7465C120.272 58.9185 120.596 58.2465 121.244 57.7305C121.892 57.2145 122.864 56.9565 124.16 56.9565H126.428V56.7405C126.428 56.1285 126.254 55.6785 125.906 55.3905C125.558 55.1025 125.126 54.9585 124.61 54.9585C124.142 54.9585 123.734 55.0725 123.386 55.3005C123.038 55.5165 122.822 55.8405 122.738 56.2725H120.488C120.548 55.6245 120.764 55.0605 121.136 54.5805C121.52 54.1005 122.012 53.7345 122.612 53.4825C123.212 53.2185 123.884 53.0865 124.628 53.0865C125.9 53.0865 126.902 53.4045 127.634 54.0405C128.366 54.6765 128.732 55.5765 128.732 56.7405V62.2305H126.77L126.554 60.7905C126.29 61.2705 125.918 61.6665 125.438 61.9785C124.97 62.2905 124.364 62.4465 123.62 62.4465ZM124.142 60.6465C124.802 60.6465 125.312 60.4305 125.672 59.9985C126.044 59.5665 126.278 59.0325 126.374 58.3965H124.412C123.8 58.3965 123.362 58.5105 123.098 58.7385C122.834 58.9545 122.702 59.2245 122.702 59.5485C122.702 59.8965 122.834 60.1665 123.098 60.3585C123.362 60.5505 123.71 60.6465 124.142 60.6465ZM130.931 62.2305V49.2705H133.235V56.9205L136.403 53.3025H139.139L135.485 57.3705L139.733 62.2305H136.853L133.235 57.7485V62.2305H130.931ZM144.412 62.4465C143.62 62.4465 142.924 62.3205 142.324 62.0685C141.724 61.8045 141.244 61.4445 140.884 60.9885C140.524 60.5325 140.308 60.0045 140.236 59.4045H142.558C142.63 59.7525 142.822 60.0525 143.134 60.3045C143.458 60.5445 143.872 60.6645 144.376 60.6645C144.88 60.6645 145.246 60.5625 145.474 60.3585C145.714 60.1545 145.834 59.9205 145.834 59.6565C145.834 59.2725 145.666 59.0145 145.33 58.8825C144.994 58.7385 144.526 58.6005 143.926 58.4685C143.542 58.3845 143.152 58.2825 142.756 58.1625C142.36 58.0425 141.994 57.8925 141.658 57.7125C141.334 57.5205 141.07 57.2805 140.866 56.9925C140.662 56.6925 140.56 56.3265 140.56 55.8945C140.56 55.1025 140.872 54.4365 141.496 53.8965C142.132 53.3565 143.02 53.0865 144.16 53.0865C145.216 53.0865 146.056 53.3325 146.68 53.8245C147.316 54.3165 147.694 54.9945 147.814 55.8585H145.636C145.504 55.1985 145.006 54.8685 144.142 54.8685C143.71 54.8685 143.374 54.9525 143.134 55.1205C142.906 55.2885 142.792 55.4985 142.792 55.7505C142.792 56.0145 142.966 56.2245 143.314 56.3805C143.662 56.5365 144.124 56.6805 144.7 56.8125C145.324 56.9565 145.894 57.1185 146.41 57.2985C146.938 57.4665 147.358 57.7245 147.67 58.0725C147.982 58.4085 148.138 58.8945 148.138 59.5305C148.15 60.0825 148.006 60.5805 147.706 61.0245C147.406 61.4685 146.974 61.8165 146.41 62.0685C145.846 62.3205 145.18 62.4465 144.412 62.4465ZM151.421 51.9165C151.001 51.9165 150.653 51.7905 150.377 51.5385C150.113 51.2865 149.981 50.9685 149.981 50.5845C149.981 50.2005 150.113 49.8885 150.377 49.6485C150.653 49.3965 151.001 49.2705 151.421 49.2705C151.841 49.2705 152.183 49.3965 152.447 49.6485C152.723 49.8885 152.861 50.2005 152.861 50.5845C152.861 50.9685 152.723 51.2865 152.447 51.5385C152.183 51.7905 151.841 51.9165 151.421 51.9165ZM150.269 62.2305V53.3025H152.573V62.2305H150.269Z" fill="white"/>
</svg>
