<svg width="32" height="32" viewBox="0 0 32 32" fill="none" xmlns="http://www.w3.org/2000/svg">
<rect width="32" height="32" rx="16" fill="#E8F1F9"/>
<g clip-path="url(#clip0_82_280)">
<path fill-rule="evenodd" clip-rule="evenodd" d="M12.6667 13.2663C12.146 12.7456 12.146 11.9014 12.6667 11.3807L17.3808 6.66665C17.9014 6.14595 18.7456 6.14595 19.2664 6.66665L21.7176 9.11795C22.2384 9.63865 22.2384 10.4829 21.7176 11.0036L18.7212 14H23.3334C24.0698 14 24.6667 14.5969 24.6667 15.3333V16.6666C24.6667 17.1647 24.3936 17.599 23.989 17.8279C23.9963 17.8842 24 17.9416 24 18V24.6666C24 25.403 23.4031 26 22.6667 26H9.33337C8.59699 26 8.00004 25.403 8.00004 24.6666V18C8.00004 17.9416 8.00378 17.8842 8.01104 17.8279C7.60645 17.599 7.33337 17.1647 7.33337 16.6666V15.3333C7.33337 14.5969 7.93033 14 8.66671 14H13.4004L12.6667 13.2663ZM15.286 14H16.8356L20.7748 10.0608L18.3236 7.60946L13.6095 12.3235L15.286 14ZM9.33337 18V24.6666H22.6667V18H9.33337ZM22.6667 16.6666H23.3334V15.3333H8.66671V16.6666H9.33337H22.6667ZM18.357 19.9191C18.6174 20.1794 18.6174 20.6016 18.357 20.8619L16.4714 22.7475C16.3267 22.8922 16.132 22.9565 15.9428 22.9403C15.7537 22.9565 15.559 22.8922 15.4142 22.7475L13.5286 20.8619C13.2683 20.6016 13.2683 20.1794 13.5286 19.9191C13.789 19.6587 14.2111 19.6587 14.4714 19.9191L15.9428 21.3905L17.4142 19.9191C17.6746 19.6587 18.0967 19.6587 18.357 19.9191Z" fill="#1877C9"/>
</g>
<defs>
<clipPath id="clip0_82_280">
<rect width="20" height="20" fill="white" transform="translate(6 6)"/>
</clipPath>
</defs>
</svg>
