<svg width="60" height="60" viewBox="0 0 60 60" fill="none" xmlns="http://www.w3.org/2000/svg">
<rect width="60" height="60" rx="30" fill="white"/>
<path d="M15.7328 22.2L13.4981 29.0263L11.2227 22.2H7.20007L11.8524 37.3152H14.8999L19.7555 22.2H15.7328Z" fill="#F97303"/>
<path d="M29.5072 24.0082C28.9517 23.426 28.3187 22.979 27.6077 22.6673C26.8966 22.3559 26.1414 22.2 25.3424 22.2H25.3221C24.5228 22.2 23.7711 22.3559 23.0671 22.6673C22.3626 22.979 21.7262 23.426 21.1573 24.0082C20.683 24.5231 20.3173 25.1154 20.0602 25.7858C19.8028 26.4563 19.6743 27.1165 19.6743 27.7667V31.3016C19.6875 32.1143 19.8063 32.8796 20.0297 33.5973C20.2533 34.3154 20.6291 34.9585 21.1573 35.5274C21.7262 36.1099 22.3661 36.5569 23.0771 36.8682C23.4333 37.0244 23.7989 37.1413 24.1738 37.2192C24.167 36.7569 24.1506 36.2951 24.1455 35.8329C24.1397 35.3067 24.1339 34.7642 23.9176 34.2741C23.7066 33.7965 23.3252 33.6755 22.9566 33.354C22.196 32.6903 22.1784 31.3866 22.1679 30.6076L22.1671 30.5478C22.1566 29.7835 22.1458 28.9932 22.317 28.348C22.3657 28.1647 22.4767 28.0753 22.6385 28.0891C22.9323 28.1144 23.2888 28.459 23.3259 28.8822C23.3883 29.5943 23.4173 30.8999 23.4176 30.9129C23.4183 30.9475 23.4421 30.9773 23.4755 30.9859C23.479 30.9868 23.8283 31.0786 24.2426 31.3806C24.6437 31.6731 24.723 32.0719 24.7237 32.076C24.7314 32.1176 24.7716 32.1453 24.8133 32.1375C24.8551 32.1299 24.8828 32.0899 24.8752 32.048C24.8717 32.0293 24.786 31.5864 24.3333 31.2562C23.9889 31.0052 23.6908 30.8926 23.5702 30.8535C23.5656 30.666 23.5491 30.0411 23.5192 29.4706C23.52 29.4486 23.5257 29.293 23.5353 29.0578C23.5432 29.0623 23.5509 29.067 23.5595 29.0711L23.5356 29.0508C23.5633 28.3667 23.6232 27.0213 23.6906 26.3068C23.7335 25.8534 23.9622 25.6564 24.1717 25.6615C24.3823 25.6671 24.6176 25.8823 24.6366 26.3415C24.6758 27.2925 24.6343 29.5436 24.6339 29.5663C24.6331 29.6088 24.6669 29.6438 24.7094 29.6447H24.7109C24.7528 29.6447 24.7871 29.6111 24.7879 29.5692C24.7883 29.5465 24.8299 27.2908 24.7904 26.3352C24.7884 26.2865 24.7834 26.2409 24.7773 26.1968C24.7841 26.1851 24.7882 26.1716 24.788 26.1571C24.7809 25.6284 25.0689 25.4369 25.3176 25.4335C25.5548 25.4312 25.8004 25.594 25.8042 25.8732C25.8226 27.2277 25.8105 29.8699 25.8104 29.8963C25.8101 29.9388 25.8445 29.9735 25.887 29.9737C25.9296 29.9737 25.9641 29.9395 25.9643 29.8971C25.9644 29.8724 25.9749 27.5799 25.9616 26.1693L25.962 26.1666C25.9734 25.9768 26.2202 25.7892 26.4603 25.7878H26.463C26.6963 25.7878 26.8374 25.9632 26.8605 26.2821C26.9253 27.1779 26.899 28.123 26.8988 28.1324C26.8386 28.9561 26.8697 29.6977 26.8701 29.706C26.8719 29.7485 26.9082 29.7814 26.9503 29.7795C26.9928 29.7777 27.0257 29.7418 27.0239 29.6992C27.0235 29.6901 26.9849 28.7713 27.0778 27.8481C27.1096 27.5316 27.2413 27.3549 27.4393 27.3637C27.6746 27.3739 27.94 27.644 27.9451 28.0153C27.9474 28.1869 27.9653 28.5243 27.986 28.915C28.0264 29.6779 28.0818 30.7228 28.0524 31.1652C28.0467 31.2504 28.0439 31.3486 28.0407 31.4622C28.0288 31.8806 28.0107 32.3024 27.9 32.7082C27.7809 33.1443 27.4851 33.4362 27.2878 33.8252C26.9027 34.585 26.9124 35.6765 26.933 36.5095C26.9375 36.69 26.9427 36.8904 26.9486 37.1069C27.1722 37.041 27.3922 36.9627 27.6077 36.8682C28.3187 36.5569 28.9517 36.1032 29.5072 35.5071C30.0488 34.9382 30.4316 34.278 30.6551 33.5262C30.8786 32.7745 30.9903 32.033 30.9903 31.3016V27.7667C30.9766 27.0759 30.8481 26.4055 30.6043 25.7553C30.3605 25.1053 29.9948 24.5231 29.5072 24.0082Z" fill="#F97303"/>
<path d="M31.559 25.6131H34.9923V37.3152H38.4055V25.6131H41.8389V22.2H31.559V25.6131Z" fill="#F97303"/>
<path d="M52.2001 25.6131V22.2H42.936V37.3152H52.2001V33.9021H46.3491V31.4642H50.6561V28.0511H46.3491V25.6131H52.2001Z" fill="#F97303"/>
</svg>
